<svg width="97" height="96" viewBox="0 0 97 96" fill="none" xmlns="http://www.w3.org/2000/svg">
<ellipse cx="48.3671" cy="48" rx="48.3671" ry="48" fill="#FFC145"/>
<mask id="mask0_37_1437" style="mask-type:alpha" maskUnits="userSpaceOnUse" x="0" y="0" width="97" height="96">
<ellipse cx="48.3671" cy="48" rx="48.3671" ry="48" fill="#FFC145"/>
</mask>
<g mask="url(#mask0_37_1437)">
<mask id="mask1_37_1437" style="mask-type:alpha" maskUnits="userSpaceOnUse" x="0" y="0" width="97" height="96">
<ellipse cx="48.3671" cy="48" rx="48.3671" ry="48" fill="#FFC145"/>
</mask>
<g mask="url(#mask1_37_1437)">
<path d="M78.257 101.718V91.9131C78.257 86.712 76.6824 81.7239 73.8796 78.0462C71.0769 74.3685 67.2756 72.3024 63.3119 72.3024H33.4217C29.458 72.3024 25.6566 74.3685 22.8539 78.0462C20.0511 81.7239 18.4766 86.712 18.4766 91.9131V101.718" fill="#197BBD"/>
<path d="M48.364 57.4686C56.618 57.4686 63.3091 50.8283 63.3091 42.637C63.3091 34.4457 56.618 27.8053 48.364 27.8053C40.1101 27.8053 33.4189 34.4457 33.4189 42.637C33.4189 50.8283 40.1101 57.4686 48.364 57.4686Z" fill="white"/>
</g>
<mask id="mask2_37_1437" style="mask-type:alpha" maskUnits="userSpaceOnUse" x="0" y="0" width="96" height="96">
<circle cx="48" cy="48" r="48" fill="#FFC145"/>
</mask>
<g mask="url(#mask2_37_1437)">
<path d="M77.6626 101.718V91.9131C77.6626 86.712 76.0999 81.7239 73.3185 78.0462C70.537 74.3685 66.7645 72.3024 62.8309 72.3024H33.1676C29.234 72.3024 25.4615 74.3685 22.68 78.0462C19.8986 81.7239 18.3359 86.712 18.3359 91.9131V101.718" fill="#197BBD"/>
<path d="M47.9967 57.4686C56.188 57.4686 62.8284 50.8283 62.8284 42.637C62.8284 34.4457 56.188 27.8053 47.9967 27.8053C39.8054 27.8053 33.165 34.4457 33.165 42.637C33.165 50.8283 39.8054 57.4686 47.9967 57.4686Z" fill="white"/>
</g>
</g>
</svg>
